<svg xmlns="http://www.w3.org/2000/svg" version="1.1" xmlns:xlink="http://www.w3.org/1999/xlink"
     xmlns:svgjs="http://svgjs.com/svgjs" width="1436" height="561" preserveAspectRatio="none" viewBox="0 0 1436 561">
     <g mask="url(&quot;#SvgjsMask2659&quot;)" fill="none">
          <rect width="1436" height="561" x="0" y="0" fill="url(#SvgjsLinearGradient2660)"></rect>
          <path d="M-63.42 361.64L-63.42 361.64" stroke="rgba(13, 33, 74, 1)" stroke-width="1.5"></path>
          <path d="M-63.42 361.64L-54.34 560.54" stroke="rgba(13, 33, 74, 1)" stroke-width="1.5"></path>
          <path d="M-63.42 361.64L72.84 508.94" stroke="rgba(13, 33, 74, 1)" stroke-width="1.5"></path>
          <path d="M-63.42 361.64L211.12 367.91" stroke="rgba(13, 33, 74, 1)" stroke-width="1.5"></path>
          <path d="M-63.42 361.64L205.2 502.41" stroke="rgba(13, 33, 74, 1)" stroke-width="1.5"></path>
          <path d="M-54.34 560.54L-54.34 560.54" stroke="rgba(13, 33, 74, 1)" stroke-width="1.5"></path>
          <path d="M-54.34 560.54L72.84 508.94" stroke="rgba(13, 33, 74, 1)" stroke-width="1.5"></path>
          <path d="M-54.34 560.54L88.3 678.31" stroke="rgba(13, 33, 74, 1)" stroke-width="1.5"></path>
          <path d="M72.84 508.94L72.84 508.94" stroke="rgba(13, 33, 74, 1)" stroke-width="1.5"></path>
          <path d="M72.84 508.94L205.2 502.41" stroke="rgba(13, 33, 74, 1)" stroke-width="1.5"></path>
          <path d="M72.84 508.94L88.3 678.31" stroke="rgba(13, 33, 74, 1)" stroke-width="1.5"></path>
          <path d="M72.84 508.94L211.12 367.91" stroke="rgba(13, 33, 74, 1)" stroke-width="1.5"></path>
          <path d="M72.84 508.94L217.66 660.24" stroke="rgba(13, 33, 74, 1)" stroke-width="1.5"></path>
          <path d="M88.3 678.31L88.3 678.31" stroke="rgba(13, 33, 74, 1)" stroke-width="1.5"></path>
          <path d="M88.3 678.31L217.66 660.24" stroke="rgba(13, 33, 74, 1)" stroke-width="1.5"></path>
          <path d="M88.3 678.31L205.2 502.41" stroke="rgba(13, 33, 74, 1)" stroke-width="1.5"></path>
          <path d="M88.3 678.31L345.63 697.05" stroke="rgba(13, 33, 74, 1)" stroke-width="1.5"></path>
          <path d="M211.12 367.91L211.12 367.91" stroke="rgba(13, 33, 74, 1)" stroke-width="1.5"></path>
          <path d="M211.12 367.91L205.2 502.41" stroke="rgba(13, 33, 74, 1)" stroke-width="1.5"></path>
          <path d="M211.12 367.91L347.67 357.23" stroke="rgba(13, 33, 74, 1)" stroke-width="1.5"></path>
          <path d="M205.2 502.41L205.2 502.41" stroke="rgba(13, 33, 74, 1)" stroke-width="1.5"></path>
          <path d="M205.2 502.41L217.66 660.24" stroke="rgba(13, 33, 74, 1)" stroke-width="1.5"></path>
          <path d="M205.2 502.41L382.66 557.82" stroke="rgba(13, 33, 74, 1)" stroke-width="1.5"></path>
          <path d="M217.66 660.24L217.66 660.24" stroke="rgba(13, 33, 74, 1)" stroke-width="1.5"></path>
          <path d="M217.66 660.24L345.63 697.05" stroke="rgba(13, 33, 74, 1)" stroke-width="1.5"></path>
          <path d="M347.67 357.23L347.67 357.23" stroke="rgba(13, 33, 74, 1)" stroke-width="1.5"></path>
          <path d="M347.67 357.23L534.64 397.47" stroke="rgba(13, 33, 74, 1)" stroke-width="1.5"></path>
          <path d="M347.67 357.23L205.2 502.41" stroke="rgba(13, 33, 74, 1)" stroke-width="1.5"></path>
          <path d="M347.67 357.23L382.66 557.82" stroke="rgba(13, 33, 74, 1)" stroke-width="1.5"></path>
          <path d="M382.66 557.82L382.66 557.82" stroke="rgba(13, 33, 74, 1)" stroke-width="1.5"></path>
          <path d="M382.66 557.82L488.09 530.69" stroke="rgba(13, 33, 74, 1)" stroke-width="1.5"></path>
          <path d="M382.66 557.82L345.63 697.05" stroke="rgba(13, 33, 74, 1)" stroke-width="1.5"></path>
          <path d="M382.66 557.82L517.53 675.18" stroke="rgba(13, 33, 74, 1)" stroke-width="1.5"></path>
          <path d="M382.66 557.82L217.66 660.24" stroke="rgba(13, 33, 74, 1)" stroke-width="1.5"></path>
          <path d="M345.63 697.05L345.63 697.05" stroke="rgba(13, 33, 74, 1)" stroke-width="1.5"></path>
          <path d="M345.63 697.05L517.53 675.18" stroke="rgba(13, 33, 74, 1)" stroke-width="1.5"></path>
          <path d="M345.63 697.05L488.09 530.69" stroke="rgba(13, 33, 74, 1)" stroke-width="1.5"></path>
          <path d="M534.64 397.47L534.64 397.47" stroke="rgba(13, 33, 74, 1)" stroke-width="1.5"></path>
          <path d="M534.64 397.47L655.8 354.83" stroke="rgba(13, 33, 74, 1)" stroke-width="1.5"></path>
          <path d="M488.09 530.69L488.09 530.69" stroke="rgba(13, 33, 74, 1)" stroke-width="1.5"></path>
          <path d="M488.09 530.69L534.64 397.47" stroke="rgba(13, 33, 74, 1)" stroke-width="1.5"></path>
          <path d="M488.09 530.69L517.53 675.18" stroke="rgba(13, 33, 74, 1)" stroke-width="1.5"></path>
          <path d="M517.53 675.18L517.53 675.18" stroke="rgba(13, 33, 74, 1)" stroke-width="1.5"></path>
          <path d="M517.53 675.18L702.36 697.7" stroke="rgba(13, 33, 74, 1)" stroke-width="1.5"></path>
          <path d="M657.94 225.11L657.94 225.11" stroke="rgba(13, 33, 74, 1)" stroke-width="1.5"></path>
          <path d="M657.94 225.11L655.8 354.83" stroke="rgba(13, 33, 74, 1)" stroke-width="1.5"></path>
          <path d="M657.94 225.11L854.22 246.54" stroke="rgba(13, 33, 74, 1)" stroke-width="1.5"></path>
          <path d="M657.94 225.11L534.64 397.47" stroke="rgba(13, 33, 74, 1)" stroke-width="1.5"></path>
          <path d="M657.94 225.11L856.35 363.9" stroke="rgba(13, 33, 74, 1)" stroke-width="1.5"></path>
          <path d="M655.8 354.83L655.8 354.83" stroke="rgba(13, 33, 74, 1)" stroke-width="1.5"></path>
          <path d="M655.8 354.83L712.06 493.68" stroke="rgba(13, 33, 74, 1)" stroke-width="1.5"></path>
          <path d="M655.8 354.83L788.49 489.37" stroke="rgba(13, 33, 74, 1)" stroke-width="1.5"></path>
          <path d="M712.06 493.68L712.06 493.68" stroke="rgba(13, 33, 74, 1)" stroke-width="1.5"></path>
          <path d="M712.06 493.68L788.49 489.37" stroke="rgba(13, 33, 74, 1)" stroke-width="1.5"></path>
          <path d="M702.36 697.7L702.36 697.7" stroke="rgba(13, 33, 74, 1)" stroke-width="1.5"></path>
          <path d="M702.36 697.7L712.06 493.68" stroke="rgba(13, 33, 74, 1)" stroke-width="1.5"></path>
          <path d="M702.36 697.7L788.49 489.37" stroke="rgba(13, 33, 74, 1)" stroke-width="1.5"></path>
          <path d="M702.36 697.7L488.09 530.69" stroke="rgba(13, 33, 74, 1)" stroke-width="1.5"></path>
          <path d="M854.22 246.54L854.22 246.54" stroke="rgba(13, 33, 74, 1)" stroke-width="1.5"></path>
          <path d="M854.22 246.54L856.35 363.9" stroke="rgba(13, 33, 74, 1)" stroke-width="1.5"></path>
          <path d="M854.22 246.54L986.37 255.17" stroke="rgba(13, 33, 74, 1)" stroke-width="1.5"></path>
          <path d="M854.22 246.54L973.84 373.03" stroke="rgba(13, 33, 74, 1)" stroke-width="1.5"></path>
          <path d="M854.22 246.54L655.8 354.83" stroke="rgba(13, 33, 74, 1)" stroke-width="1.5"></path>
          <path d="M854.22 246.54L788.49 489.37" stroke="rgba(13, 33, 74, 1)" stroke-width="1.5"></path>
          <path d="M856.35 363.9L856.35 363.9" stroke="rgba(13, 33, 74, 1)" stroke-width="1.5"></path>
          <path d="M856.35 363.9L973.84 373.03" stroke="rgba(13, 33, 74, 1)" stroke-width="1.5"></path>
          <path d="M856.35 363.9L788.49 489.37" stroke="rgba(13, 33, 74, 1)" stroke-width="1.5"></path>
          <path d="M856.35 363.9L986.37 255.17" stroke="rgba(13, 33, 74, 1)" stroke-width="1.5"></path>
          <path d="M856.35 363.9L712.06 493.68" stroke="rgba(13, 33, 74, 1)" stroke-width="1.5"></path>
          <path d="M856.35 363.9L655.8 354.83" stroke="rgba(13, 33, 74, 1)" stroke-width="1.5"></path>
          <path d="M788.49 489.37L788.49 489.37" stroke="rgba(13, 33, 74, 1)" stroke-width="1.5"></path>
          <path d="M970.57 -39.59L970.57 -39.59" stroke="rgba(13, 33, 74, 1)" stroke-width="1.5"></path>
          <path d="M970.57 -39.59L1121.12 -109.35" stroke="rgba(13, 33, 74, 1)" stroke-width="1.5"></path>
          <path d="M970.57 -39.59L1108.26 67.29" stroke="rgba(13, 33, 74, 1)" stroke-width="1.5"></path>
          <path d="M970.57 -39.59L1249.21 -73.06" stroke="rgba(13, 33, 74, 1)" stroke-width="1.5"></path>
          <path d="M970.57 -39.59L1238.68 59.46" stroke="rgba(13, 33, 74, 1)" stroke-width="1.5"></path>
          <path d="M970.57 -39.59L986.37 255.17" stroke="rgba(13, 33, 74, 1)" stroke-width="1.5"></path>
          <path d="M986.37 255.17L986.37 255.17" stroke="rgba(13, 33, 74, 1)" stroke-width="1.5"></path>
          <path d="M986.37 255.17L973.84 373.03" stroke="rgba(13, 33, 74, 1)" stroke-width="1.5"></path>
          <path d="M986.37 255.17L1114.64 246.63" stroke="rgba(13, 33, 74, 1)" stroke-width="1.5"></path>
          <path d="M973.84 373.03L973.84 373.03" stroke="rgba(13, 33, 74, 1)" stroke-width="1.5"></path>
          <path d="M973.84 373.03L987.36 535.03" stroke="rgba(13, 33, 74, 1)" stroke-width="1.5"></path>
          <path d="M973.84 373.03L1114.64 246.63" stroke="rgba(13, 33, 74, 1)" stroke-width="1.5"></path>
          <path d="M987.36 535.03L987.36 535.03" stroke="rgba(13, 33, 74, 1)" stroke-width="1.5"></path>
          <path d="M987.36 535.03L1002.63 677.05" stroke="rgba(13, 33, 74, 1)" stroke-width="1.5"></path>
          <path d="M1002.63 677.05L1002.63 677.05" stroke="rgba(13, 33, 74, 1)" stroke-width="1.5"></path>
          <path d="M1002.63 677.05L1134.01 696.42" stroke="rgba(13, 33, 74, 1)" stroke-width="1.5"></path>
          <path d="M1002.63 677.05L1155.33 508.88" stroke="rgba(13, 33, 74, 1)" stroke-width="1.5"></path>
          <path d="M1002.63 677.05L1259.33 662.79" stroke="rgba(13, 33, 74, 1)" stroke-width="1.5"></path>
          <path d="M1002.63 677.05L788.49 489.37" stroke="rgba(13, 33, 74, 1)" stroke-width="1.5"></path>
          <path d="M1121.12 -109.35L1121.12 -109.35" stroke="rgba(13, 33, 74, 1)" stroke-width="1.5"></path>
          <path d="M1121.12 -109.35L1249.21 -73.06" stroke="rgba(13, 33, 74, 1)" stroke-width="1.5"></path>
          <path d="M1121.12 -109.35L1108.26 67.29" stroke="rgba(13, 33, 74, 1)" stroke-width="1.5"></path>
          <path d="M1121.12 -109.35L1238.68 59.46" stroke="rgba(13, 33, 74, 1)" stroke-width="1.5"></path>
          <path d="M1121.12 -109.35L1409.03 40.86" stroke="rgba(13, 33, 74, 1)" stroke-width="1.5"></path>
          <path d="M1121.12 -109.35L1449.27 -80.33" stroke="rgba(13, 33, 74, 1)" stroke-width="1.5"></path>
          <path d="M1108.26 67.29L1108.26 67.29" stroke="rgba(13, 33, 74, 1)" stroke-width="1.5"></path>
          <path d="M1108.26 67.29L1238.68 59.46" stroke="rgba(13, 33, 74, 1)" stroke-width="1.5"></path>
          <path d="M1114.64 246.63L1114.64 246.63" stroke="rgba(13, 33, 74, 1)" stroke-width="1.5"></path>
          <path d="M1114.64 246.63L1242.94 244.75" stroke="rgba(13, 33, 74, 1)" stroke-width="1.5"></path>
          <path d="M1114.64 246.63L1243.61 339.84" stroke="rgba(13, 33, 74, 1)" stroke-width="1.5"></path>
          <path d="M1114.64 246.63L1108.26 67.29" stroke="rgba(13, 33, 74, 1)" stroke-width="1.5"></path>
          <path d="M1114.64 246.63L1238.68 59.46" stroke="rgba(13, 33, 74, 1)" stroke-width="1.5"></path>
          <path d="M1155.33 508.88L1155.33 508.88" stroke="rgba(13, 33, 74, 1)" stroke-width="1.5"></path>
          <path d="M1155.33 508.88L1241.69 491.25" stroke="rgba(13, 33, 74, 1)" stroke-width="1.5"></path>
          <path d="M1155.33 508.88L987.36 535.03" stroke="rgba(13, 33, 74, 1)" stroke-width="1.5"></path>
          <path d="M1155.33 508.88L1259.33 662.79" stroke="rgba(13, 33, 74, 1)" stroke-width="1.5"></path>
          <path d="M1155.33 508.88L1134.01 696.42" stroke="rgba(13, 33, 74, 1)" stroke-width="1.5"></path>
          <path d="M1155.33 508.88L1243.61 339.84" stroke="rgba(13, 33, 74, 1)" stroke-width="1.5"></path>
          <path d="M1155.33 508.88L973.84 373.03" stroke="rgba(13, 33, 74, 1)" stroke-width="1.5"></path>
          <path d="M1134.01 696.42L1134.01 696.42" stroke="rgba(13, 33, 74, 1)" stroke-width="1.5"></path>
          <path d="M1134.01 696.42L1259.33 662.79" stroke="rgba(13, 33, 74, 1)" stroke-width="1.5"></path>
          <path d="M1134.01 696.42L987.36 535.03" stroke="rgba(13, 33, 74, 1)" stroke-width="1.5"></path>
          <path d="M1134.01 696.42L1241.69 491.25" stroke="rgba(13, 33, 74, 1)" stroke-width="1.5"></path>
          <path d="M1249.21 -73.06L1249.21 -73.06" stroke="rgba(13, 33, 74, 1)" stroke-width="1.5"></path>
          <path d="M1249.21 -73.06L1238.68 59.46" stroke="rgba(13, 33, 74, 1)" stroke-width="1.5"></path>
          <path d="M1238.68 59.46L1238.68 59.46" stroke="rgba(13, 33, 74, 1)" stroke-width="1.5"></path>
          <path d="M1238.68 59.46L1409.03 40.86" stroke="rgba(13, 33, 74, 1)" stroke-width="1.5"></path>
          <path d="M1238.68 59.46L1242.94 244.75" stroke="rgba(13, 33, 74, 1)" stroke-width="1.5"></path>
          <path d="M1242.94 244.75L1242.94 244.75" stroke="rgba(13, 33, 74, 1)" stroke-width="1.5"></path>
          <path d="M1242.94 244.75L1243.61 339.84" stroke="rgba(13, 33, 74, 1)" stroke-width="1.5"></path>
          <path d="M1242.94 244.75L1420.12 228.96" stroke="rgba(13, 33, 74, 1)" stroke-width="1.5"></path>
          <path d="M1242.94 244.75L1392.59 347.6" stroke="rgba(13, 33, 74, 1)" stroke-width="1.5"></path>
          <path d="M1243.61 339.84L1243.61 339.84" stroke="rgba(13, 33, 74, 1)" stroke-width="1.5"></path>
          <path d="M1243.61 339.84L1392.59 347.6" stroke="rgba(13, 33, 74, 1)" stroke-width="1.5"></path>
          <path d="M1243.61 339.84L1241.69 491.25" stroke="rgba(13, 33, 74, 1)" stroke-width="1.5"></path>
          <path d="M1241.69 491.25L1241.69 491.25" stroke="rgba(13, 33, 74, 1)" stroke-width="1.5"></path>
          <path d="M1241.69 491.25L1259.33 662.79" stroke="rgba(13, 33, 74, 1)" stroke-width="1.5"></path>
          <path d="M1241.69 491.25L1410.86 543.42" stroke="rgba(13, 33, 74, 1)" stroke-width="1.5"></path>
          <path d="M1241.69 491.25L1392.59 347.6" stroke="rgba(13, 33, 74, 1)" stroke-width="1.5"></path>
          <path d="M1259.33 662.79L1259.33 662.79" stroke="rgba(13, 33, 74, 1)" stroke-width="1.5"></path>
          <path d="M1259.33 662.79L1390.23 670.94" stroke="rgba(13, 33, 74, 1)" stroke-width="1.5"></path>
          <path d="M1259.33 662.79L1410.86 543.42" stroke="rgba(13, 33, 74, 1)" stroke-width="1.5"></path>
          <path d="M1449.27 -80.33L1449.27 -80.33" stroke="rgba(13, 33, 74, 1)" stroke-width="1.5"></path>
          <path d="M1449.27 -80.33L1564.33 -111.27" stroke="rgba(13, 33, 74, 1)" stroke-width="1.5"></path>
          <path d="M1449.27 -80.33L1409.03 40.86" stroke="rgba(13, 33, 74, 1)" stroke-width="1.5"></path>
          <path d="M1449.27 -80.33L1249.21 -73.06" stroke="rgba(13, 33, 74, 1)" stroke-width="1.5"></path>
          <path d="M1449.27 -80.33L1597.12 103.64" stroke="rgba(13, 33, 74, 1)" stroke-width="1.5"></path>
          <path d="M1409.03 40.86L1409.03 40.86" stroke="rgba(13, 33, 74, 1)" stroke-width="1.5"></path>
          <path d="M1409.03 40.86L1420.12 228.96" stroke="rgba(13, 33, 74, 1)" stroke-width="1.5"></path>
          <path d="M1420.12 228.96L1420.12 228.96" stroke="rgba(13, 33, 74, 1)" stroke-width="1.5"></path>
          <path d="M1420.12 228.96L1392.59 347.6" stroke="rgba(13, 33, 74, 1)" stroke-width="1.5"></path>
          <path d="M1392.59 347.6L1392.59 347.6" stroke="rgba(13, 33, 74, 1)" stroke-width="1.5"></path>
          <path d="M1392.59 347.6L1410.86 543.42" stroke="rgba(13, 33, 74, 1)" stroke-width="1.5"></path>
          <path d="M1392.59 347.6L1541.89 542.62" stroke="rgba(13, 33, 74, 1)" stroke-width="1.5"></path>
          <path d="M1410.86 543.42L1410.86 543.42" stroke="rgba(13, 33, 74, 1)" stroke-width="1.5"></path>
          <path d="M1410.86 543.42L1390.23 670.94" stroke="rgba(13, 33, 74, 1)" stroke-width="1.5"></path>
          <path d="M1410.86 543.42L1541.89 542.62" stroke="rgba(13, 33, 74, 1)" stroke-width="1.5"></path>
          <path d="M1390.23 670.94L1390.23 670.94" stroke="rgba(13, 33, 74, 1)" stroke-width="1.5"></path>
          <path d="M1390.23 670.94L1575.51 648.12" stroke="rgba(13, 33, 74, 1)" stroke-width="1.5"></path>
          <path d="M1390.23 670.94L1541.89 542.62" stroke="rgba(13, 33, 74, 1)" stroke-width="1.5"></path>
          <path d="M1390.23 670.94L1241.69 491.25" stroke="rgba(13, 33, 74, 1)" stroke-width="1.5"></path>
          <path d="M1390.23 670.94L1134.01 696.42" stroke="rgba(13, 33, 74, 1)" stroke-width="1.5"></path>
          <path d="M1564.33 -111.27L1564.33 -111.27" stroke="rgba(13, 33, 74, 1)" stroke-width="1.5"></path>
          <path d="M1564.33 -111.27L1597.12 103.64" stroke="rgba(13, 33, 74, 1)" stroke-width="1.5"></path>
          <path d="M1564.33 -111.27L1409.03 40.86" stroke="rgba(13, 33, 74, 1)" stroke-width="1.5"></path>
          <path d="M1597.12 103.64L1597.12 103.64" stroke="rgba(13, 33, 74, 1)" stroke-width="1.5"></path>
          <path d="M1597.12 103.64L1609.79 230.6" stroke="rgba(13, 33, 74, 1)" stroke-width="1.5"></path>
          <path d="M1597.12 103.64L1409.03 40.86" stroke="rgba(13, 33, 74, 1)" stroke-width="1.5"></path>
          <path d="M1597.12 103.64L1420.12 228.96" stroke="rgba(13, 33, 74, 1)" stroke-width="1.5"></path>
          <path d="M1597.12 103.64L1392.59 347.6" stroke="rgba(13, 33, 74, 1)" stroke-width="1.5"></path>
          <path d="M1609.79 230.6L1609.79 230.6" stroke="rgba(13, 33, 74, 1)" stroke-width="1.5"></path>
          <path d="M1609.79 230.6L1420.12 228.96" stroke="rgba(13, 33, 74, 1)" stroke-width="1.5"></path>
          <path d="M1609.79 230.6L1392.59 347.6" stroke="rgba(13, 33, 74, 1)" stroke-width="1.5"></path>
          <path d="M1609.79 230.6L1409.03 40.86" stroke="rgba(13, 33, 74, 1)" stroke-width="1.5"></path>
          <path d="M1541.89 542.62L1541.89 542.62" stroke="rgba(13, 33, 74, 1)" stroke-width="1.5"></path>
          <path d="M1541.89 542.62L1575.51 648.12" stroke="rgba(13, 33, 74, 1)" stroke-width="1.5"></path>
          <path d="M1575.51 648.12L1575.51 648.12" stroke="rgba(13, 33, 74, 1)" stroke-width="1.5"></path>
          <circle r="5" cx="-63.42" cy="361.64" fill="rgba(13, 33, 74, 1)"></circle>
          <circle r="5" cx="-54.34" cy="560.54" fill="rgba(13, 33, 74, 1)"></circle>
          <circle r="5" cx="72.84" cy="508.94" fill="rgba(13, 33, 74, 1)"></circle>
          <circle r="5" cx="88.3" cy="678.31" fill="rgba(13, 33, 74, 1)"></circle>
          <circle r="5" cx="211.12" cy="367.91" fill="rgba(13, 33, 74, 1)"></circle>
          <circle r="5" cx="205.2" cy="502.41" fill="rgba(13, 33, 74, 1)"></circle>
          <circle r="5" cx="217.66" cy="660.24" fill="rgba(13, 33, 74, 1)"></circle>
          <circle r="5" cx="347.67" cy="357.23" fill="rgba(13, 33, 74, 1)"></circle>
          <circle r="5" cx="382.66" cy="557.82" fill="rgba(13, 33, 74, 1)"></circle>
          <circle r="5" cx="345.63" cy="697.05" fill="rgba(13, 33, 74, 1)"></circle>
          <circle r="5" cx="534.64" cy="397.47" fill="rgba(13, 33, 74, 1)"></circle>
          <circle r="5" cx="488.09" cy="530.69" fill="rgba(13, 33, 74, 1)"></circle>
          <circle r="5" cx="517.53" cy="675.18" fill="rgba(13, 33, 74, 1)"></circle>
          <circle r="5" cx="657.94" cy="225.11" fill="rgba(13, 33, 74, 1)"></circle>
          <circle r="5" cx="655.8" cy="354.83" fill="rgba(13, 33, 74, 1)"></circle>
          <circle r="5" cx="712.06" cy="493.68" fill="rgba(13, 33, 74, 1)"></circle>
          <circle r="5" cx="702.36" cy="697.7" fill="rgba(13, 33, 74, 1)"></circle>
          <circle r="5" cx="854.22" cy="246.54" fill="rgba(13, 33, 74, 1)"></circle>
          <circle r="5" cx="856.35" cy="363.9" fill="rgba(13, 33, 74, 1)"></circle>
          <circle r="5" cx="788.49" cy="489.37" fill="rgba(13, 33, 74, 1)"></circle>
          <circle r="5" cx="970.57" cy="-39.59" fill="rgba(13, 33, 74, 1)"></circle>
          <circle r="5" cx="986.37" cy="255.17" fill="rgba(13, 33, 74, 1)"></circle>
          <circle r="5" cx="973.84" cy="373.03" fill="rgba(13, 33, 74, 1)"></circle>
          <circle r="5" cx="987.36" cy="535.03" fill="rgba(13, 33, 74, 1)"></circle>
          <circle r="5" cx="1002.63" cy="677.05" fill="rgba(13, 33, 74, 1)"></circle>
          <circle r="5" cx="1121.12" cy="-109.35" fill="rgba(13, 33, 74, 1)"></circle>
          <circle r="5" cx="1108.26" cy="67.29" fill="rgba(13, 33, 74, 1)"></circle>
          <circle r="5" cx="1114.64" cy="246.63" fill="rgba(13, 33, 74, 1)"></circle>
          <circle r="5" cx="1155.33" cy="508.88" fill="rgba(13, 33, 74, 1)"></circle>
          <circle r="5" cx="1134.01" cy="696.42" fill="rgba(13, 33, 74, 1)"></circle>
          <circle r="5" cx="1249.21" cy="-73.06" fill="rgba(13, 33, 74, 1)"></circle>
          <circle r="5" cx="1238.68" cy="59.46" fill="rgba(13, 33, 74, 1)"></circle>
          <circle r="5" cx="1242.94" cy="244.75" fill="rgba(13, 33, 74, 1)"></circle>
          <circle r="5" cx="1243.61" cy="339.84" fill="rgba(13, 33, 74, 1)"></circle>
          <circle r="5" cx="1241.69" cy="491.25" fill="rgba(13, 33, 74, 1)"></circle>
          <circle r="5" cx="1259.33" cy="662.79" fill="rgba(13, 33, 74, 1)"></circle>
          <circle r="5" cx="1449.27" cy="-80.33" fill="rgba(13, 33, 74, 1)"></circle>
          <circle r="5" cx="1409.03" cy="40.86" fill="rgba(13, 33, 74, 1)"></circle>
          <circle r="5" cx="1420.12" cy="228.96" fill="rgba(13, 33, 74, 1)"></circle>
          <circle r="5" cx="1392.59" cy="347.6" fill="rgba(13, 33, 74, 1)"></circle>
          <circle r="5" cx="1410.86" cy="543.42" fill="rgba(13, 33, 74, 1)"></circle>
          <circle r="5" cx="1390.23" cy="670.94" fill="rgba(13, 33, 74, 1)"></circle>
          <circle r="5" cx="1564.33" cy="-111.27" fill="rgba(13, 33, 74, 1)"></circle>
          <circle r="5" cx="1597.12" cy="103.64" fill="rgba(13, 33, 74, 1)"></circle>
          <circle r="5" cx="1609.79" cy="230.6" fill="rgba(13, 33, 74, 1)"></circle>
          <circle r="5" cx="1541.89" cy="542.62" fill="rgba(13, 33, 74, 1)"></circle>
          <circle r="5" cx="1575.51" cy="648.12" fill="rgba(13, 33, 74, 1)"></circle>
          <path d="M-77.84 651.9L-77.84 651.9" stroke="hsla(27, 81.8%, 50.5%, 0.49)" stroke-width="1.5"></path>
          <path d="M-77.84 651.9L-44.07 491.8" stroke="hsla(27, 81.8%, 50.5%, 0.49)" stroke-width="1.5"></path>
          <path d="M-77.84 651.9L105.15 645.03" stroke="hsla(27, 81.8%, 50.5%, 0.49)" stroke-width="1.5"></path>
          <path d="M381.97 698.3L381.97 698.3" stroke="hsla(27, 81.8%, 50.5%, 0.49)" stroke-width="1.5"></path>
          <path d="M381.97 698.3L504.4 700.07" stroke="hsla(27, 81.8%, 50.5%, 0.49)" stroke-width="1.5"></path>
          <path d="M381.97 698.3L212.81 670.96" stroke="hsla(27, 81.8%, 50.5%, 0.49)" stroke-width="1.5"></path>
          <path d="M381.97 698.3L364.32 503.9" stroke="hsla(27, 81.8%, 50.5%, 0.49)" stroke-width="1.5"></path>
          <path d="M381.97 698.3L505.04 536.42" stroke="hsla(27, 81.8%, 50.5%, 0.49)" stroke-width="1.5"></path>
          <path d="M381.97 698.3L251.61 509.49" stroke="hsla(27, 81.8%, 50.5%, 0.49)" stroke-width="1.5"></path>
          <path d="M381.97 698.3L105.15 645.03" stroke="hsla(27, 81.8%, 50.5%, 0.49)" stroke-width="1.5"></path>
          <path d="M504.4 700.07L504.4 700.07" stroke="hsla(27, 81.8%, 50.5%, 0.49)" stroke-width="1.5"></path>
          <path d="M504.4 700.07L505.04 536.42" stroke="hsla(27, 81.8%, 50.5%, 0.49)" stroke-width="1.5"></path>
          <path d="M504.4 700.07L687.59 712.27" stroke="hsla(27, 81.8%, 50.5%, 0.49)" stroke-width="1.5"></path>
          <path d="M1151.95 -99.39L1151.95 -99.39" stroke="hsla(27, 81.8%, 50.5%, 0.49)" stroke-width="1.5"></path>
          <path d="M1151.95 -99.39L1283.82 -83.36" stroke="hsla(27, 81.8%, 50.5%, 0.49)" stroke-width="1.5"></path>
          <path d="M1151.95 -99.39L1242.81 62.49" stroke="hsla(27, 81.8%, 50.5%, 0.49)" stroke-width="1.5"></path>
          <path d="M1150.02 256.14L1150.02 256.14" stroke="hsla(27, 81.8%, 50.5%, 0.49)" stroke-width="1.5"></path>
          <path d="M1150.02 256.14L1154.45 392.24" stroke="hsla(27, 81.8%, 50.5%, 0.49)" stroke-width="1.5"></path>
          <path d="M1150.02 256.14L1252.23 353.03" stroke="hsla(27, 81.8%, 50.5%, 0.49)" stroke-width="1.5"></path>
          <path d="M1150.02 256.14L1287.36 212.73" stroke="hsla(27, 81.8%, 50.5%, 0.49)" stroke-width="1.5"></path>
          <path d="M1150.02 256.14L1242.81 62.49" stroke="hsla(27, 81.8%, 50.5%, 0.49)" stroke-width="1.5"></path>
          <path d="M1150.02 256.14L959.54 391.69" stroke="hsla(27, 81.8%, 50.5%, 0.49)" stroke-width="1.5"></path>
          <path d="M1242.81 62.49L1242.81 62.49" stroke="hsla(27, 81.8%, 50.5%, 0.49)" stroke-width="1.5"></path>
          <path d="M1242.81 62.49L1283.82 -83.36" stroke="hsla(27, 81.8%, 50.5%, 0.49)" stroke-width="1.5"></path>
          <path d="M1242.81 62.49L1287.36 212.73" stroke="hsla(27, 81.8%, 50.5%, 0.49)" stroke-width="1.5"></path>
          <path d="M1242.81 62.49L1401.3 -43.74" stroke="hsla(27, 81.8%, 50.5%, 0.49)" stroke-width="1.5"></path>
          <path d="M1242.81 62.49L1442.14 58" stroke="hsla(27, 81.8%, 50.5%, 0.49)" stroke-width="1.5"></path>
          <path d="M1442.14 58L1442.14 58" stroke="hsla(27, 81.8%, 50.5%, 0.49)" stroke-width="1.5"></path>
          <path d="M1442.14 58L1401.3 -43.74" stroke="hsla(27, 81.8%, 50.5%, 0.49)" stroke-width="1.5"></path>
          <path d="M1442.14 58L1576.7 38.13" stroke="hsla(27, 81.8%, 50.5%, 0.49)" stroke-width="1.5"></path>
          <path d="M1442.14 58L1394.13 225.14" stroke="hsla(27, 81.8%, 50.5%, 0.49)" stroke-width="1.5"></path>
          <path d="M-44.07 491.8L-44.07 491.8" stroke="hsla(27, 81.8%, 50.5%, 0.49)" stroke-width="1.5"></path>
          <path d="M-44.07 491.8L72.73 543.38" stroke="hsla(27, 81.8%, 50.5%, 0.49)" stroke-width="1.5"></path>
          <path d="M72.73 543.38L72.73 543.38" stroke="hsla(27, 81.8%, 50.5%, 0.49)" stroke-width="1.5"></path>
          <path d="M72.73 543.38L105.15 645.03" stroke="hsla(27, 81.8%, 50.5%, 0.49)" stroke-width="1.5"></path>
          <path d="M105.15 645.03L105.15 645.03" stroke="hsla(27, 81.8%, 50.5%, 0.49)" stroke-width="1.5"></path>
          <path d="M105.15 645.03L212.81 670.96" stroke="hsla(27, 81.8%, 50.5%, 0.49)" stroke-width="1.5"></path>
          <path d="M105.15 645.03L251.61 509.49" stroke="hsla(27, 81.8%, 50.5%, 0.49)" stroke-width="1.5"></path>
          <path d="M105.15 645.03L-44.07 491.8" stroke="hsla(27, 81.8%, 50.5%, 0.49)" stroke-width="1.5"></path>
          <path d="M251.61 509.49L251.61 509.49" stroke="hsla(27, 81.8%, 50.5%, 0.49)" stroke-width="1.5"></path>
          <path d="M251.61 509.49L364.32 503.9" stroke="hsla(27, 81.8%, 50.5%, 0.49)" stroke-width="1.5"></path>
          <path d="M251.61 509.49L212.81 670.96" stroke="hsla(27, 81.8%, 50.5%, 0.49)" stroke-width="1.5"></path>
          <path d="M251.61 509.49L72.73 543.38" stroke="hsla(27, 81.8%, 50.5%, 0.49)" stroke-width="1.5"></path>
          <path d="M212.81 670.96L212.81 670.96" stroke="hsla(27, 81.8%, 50.5%, 0.49)" stroke-width="1.5"></path>
          <path d="M364.32 503.9L364.32 503.9" stroke="hsla(27, 81.8%, 50.5%, 0.49)" stroke-width="1.5"></path>
          <path d="M364.32 503.9L505.04 536.42" stroke="hsla(27, 81.8%, 50.5%, 0.49)" stroke-width="1.5"></path>
          <path d="M505.04 536.42L505.04 536.42" stroke="hsla(27, 81.8%, 50.5%, 0.49)" stroke-width="1.5"></path>
          <path d="M505.04 536.42L690.35 544.04" stroke="hsla(27, 81.8%, 50.5%, 0.49)" stroke-width="1.5"></path>
          <path d="M505.04 536.42L686.85 370.65" stroke="hsla(27, 81.8%, 50.5%, 0.49)" stroke-width="1.5"></path>
          <path d="M505.04 536.42L687.59 712.27" stroke="hsla(27, 81.8%, 50.5%, 0.49)" stroke-width="1.5"></path>
          <path d="M686.85 370.65L686.85 370.65" stroke="hsla(27, 81.8%, 50.5%, 0.49)" stroke-width="1.5"></path>
          <path d="M686.85 370.65L825.55 403.97" stroke="hsla(27, 81.8%, 50.5%, 0.49)" stroke-width="1.5"></path>
          <path d="M686.85 370.65L690.35 544.04" stroke="hsla(27, 81.8%, 50.5%, 0.49)" stroke-width="1.5"></path>
          <path d="M690.35 544.04L690.35 544.04" stroke="hsla(27, 81.8%, 50.5%, 0.49)" stroke-width="1.5"></path>
          <path d="M690.35 544.04L838.27 491.75" stroke="hsla(27, 81.8%, 50.5%, 0.49)" stroke-width="1.5"></path>
          <path d="M690.35 544.04L687.59 712.27" stroke="hsla(27, 81.8%, 50.5%, 0.49)" stroke-width="1.5"></path>
          <path d="M687.59 712.27L687.59 712.27" stroke="hsla(27, 81.8%, 50.5%, 0.49)" stroke-width="1.5"></path>
          <path d="M687.59 712.27L815.94 662.87" stroke="hsla(27, 81.8%, 50.5%, 0.49)" stroke-width="1.5"></path>
          <path d="M825.55 403.97L825.55 403.97" stroke="hsla(27, 81.8%, 50.5%, 0.49)" stroke-width="1.5"></path>
          <path d="M825.55 403.97L838.27 491.75" stroke="hsla(27, 81.8%, 50.5%, 0.49)" stroke-width="1.5"></path>
          <path d="M825.55 403.97L959.54 391.69" stroke="hsla(27, 81.8%, 50.5%, 0.49)" stroke-width="1.5"></path>
          <path d="M838.27 491.75L838.27 491.75" stroke="hsla(27, 81.8%, 50.5%, 0.49)" stroke-width="1.5"></path>
          <path d="M838.27 491.75L950.89 538.57" stroke="hsla(27, 81.8%, 50.5%, 0.49)" stroke-width="1.5"></path>
          <path d="M815.94 662.87L815.94 662.87" stroke="hsla(27, 81.8%, 50.5%, 0.49)" stroke-width="1.5"></path>
          <path d="M815.94 662.87L838.27 491.75" stroke="hsla(27, 81.8%, 50.5%, 0.49)" stroke-width="1.5"></path>
          <path d="M815.94 662.87L690.35 544.04" stroke="hsla(27, 81.8%, 50.5%, 0.49)" stroke-width="1.5"></path>
          <path d="M815.94 662.87L950.89 538.57" stroke="hsla(27, 81.8%, 50.5%, 0.49)" stroke-width="1.5"></path>
          <path d="M815.94 662.87L825.55 403.97" stroke="hsla(27, 81.8%, 50.5%, 0.49)" stroke-width="1.5"></path>
          <path d="M815.94 662.87L959.54 391.69" stroke="hsla(27, 81.8%, 50.5%, 0.49)" stroke-width="1.5"></path>
          <path d="M959.54 391.69L959.54 391.69" stroke="hsla(27, 81.8%, 50.5%, 0.49)" stroke-width="1.5"></path>
          <path d="M959.54 391.69L950.89 538.57" stroke="hsla(27, 81.8%, 50.5%, 0.49)" stroke-width="1.5"></path>
          <path d="M959.54 391.69L838.27 491.75" stroke="hsla(27, 81.8%, 50.5%, 0.49)" stroke-width="1.5"></path>
          <path d="M950.89 538.57L950.89 538.57" stroke="hsla(27, 81.8%, 50.5%, 0.49)" stroke-width="1.5"></path>
          <path d="M1154.45 392.24L1154.45 392.24" stroke="hsla(27, 81.8%, 50.5%, 0.49)" stroke-width="1.5"></path>
          <path d="M1154.45 392.24L1252.23 353.03" stroke="hsla(27, 81.8%, 50.5%, 0.49)" stroke-width="1.5"></path>
          <path d="M1133.46 502.13L1133.46 502.13" stroke="hsla(27, 81.8%, 50.5%, 0.49)" stroke-width="1.5"></path>
          <path d="M1133.46 502.13L1154.45 392.24" stroke="hsla(27, 81.8%, 50.5%, 0.49)" stroke-width="1.5"></path>
          <path d="M1133.46 502.13L1262.65 537.63" stroke="hsla(27, 81.8%, 50.5%, 0.49)" stroke-width="1.5"></path>
          <path d="M1133.46 502.13L1132.22 652.8" stroke="hsla(27, 81.8%, 50.5%, 0.49)" stroke-width="1.5"></path>
          <path d="M1133.46 502.13L950.89 538.57" stroke="hsla(27, 81.8%, 50.5%, 0.49)" stroke-width="1.5"></path>
          <path d="M1133.46 502.13L1252.23 353.03" stroke="hsla(27, 81.8%, 50.5%, 0.49)" stroke-width="1.5"></path>
          <path d="M1132.22 652.8L1132.22 652.8" stroke="hsla(27, 81.8%, 50.5%, 0.49)" stroke-width="1.5"></path>
          <path d="M1132.22 652.8L1262.65 537.63" stroke="hsla(27, 81.8%, 50.5%, 0.49)" stroke-width="1.5"></path>
          <path d="M1132.22 652.8L950.89 538.57" stroke="hsla(27, 81.8%, 50.5%, 0.49)" stroke-width="1.5"></path>
          <path d="M1132.22 652.8L1154.45 392.24" stroke="hsla(27, 81.8%, 50.5%, 0.49)" stroke-width="1.5"></path>
          <path d="M1132.22 652.8L1420.99 684.2" stroke="hsla(27, 81.8%, 50.5%, 0.49)" stroke-width="1.5"></path>
          <path d="M1132.22 652.8L959.54 391.69" stroke="hsla(27, 81.8%, 50.5%, 0.49)" stroke-width="1.5"></path>
          <path d="M1283.82 -83.36L1283.82 -83.36" stroke="hsla(27, 81.8%, 50.5%, 0.49)" stroke-width="1.5"></path>
          <path d="M1283.82 -83.36L1401.3 -43.74" stroke="hsla(27, 81.8%, 50.5%, 0.49)" stroke-width="1.5"></path>
          <path d="M1287.36 212.73L1287.36 212.73" stroke="hsla(27, 81.8%, 50.5%, 0.49)" stroke-width="1.5"></path>
          <path d="M1287.36 212.73L1394.13 225.14" stroke="hsla(27, 81.8%, 50.5%, 0.49)" stroke-width="1.5"></path>
          <path d="M1287.36 212.73L1252.23 353.03" stroke="hsla(27, 81.8%, 50.5%, 0.49)" stroke-width="1.5"></path>
          <path d="M1252.23 353.03L1252.23 353.03" stroke="hsla(27, 81.8%, 50.5%, 0.49)" stroke-width="1.5"></path>
          <path d="M1262.65 537.63L1262.65 537.63" stroke="hsla(27, 81.8%, 50.5%, 0.49)" stroke-width="1.5"></path>
          <path d="M1262.65 537.63L1154.45 392.24" stroke="hsla(27, 81.8%, 50.5%, 0.49)" stroke-width="1.5"></path>
          <path d="M1262.65 537.63L1252.23 353.03" stroke="hsla(27, 81.8%, 50.5%, 0.49)" stroke-width="1.5"></path>
          <path d="M1262.65 537.63L1450.82 559.44" stroke="hsla(27, 81.8%, 50.5%, 0.49)" stroke-width="1.5"></path>
          <path d="M1401.3 -43.74L1401.3 -43.74" stroke="hsla(27, 81.8%, 50.5%, 0.49)" stroke-width="1.5"></path>
          <path d="M1394.13 225.14L1394.13 225.14" stroke="hsla(27, 81.8%, 50.5%, 0.49)" stroke-width="1.5"></path>
          <path d="M1394.13 225.14L1401.3 388.46" stroke="hsla(27, 81.8%, 50.5%, 0.49)" stroke-width="1.5"></path>
          <path d="M1401.3 388.46L1401.3 388.46" stroke="hsla(27, 81.8%, 50.5%, 0.49)" stroke-width="1.5"></path>
          <path d="M1401.3 388.46L1252.23 353.03" stroke="hsla(27, 81.8%, 50.5%, 0.49)" stroke-width="1.5"></path>
          <path d="M1401.3 388.46L1557.34 395.43" stroke="hsla(27, 81.8%, 50.5%, 0.49)" stroke-width="1.5"></path>
          <path d="M1450.82 559.44L1450.82 559.44" stroke="hsla(27, 81.8%, 50.5%, 0.49)" stroke-width="1.5"></path>
          <path d="M1450.82 559.44L1420.99 684.2" stroke="hsla(27, 81.8%, 50.5%, 0.49)" stroke-width="1.5"></path>
          <path d="M1450.82 559.44L1577.4 496.85" stroke="hsla(27, 81.8%, 50.5%, 0.49)" stroke-width="1.5"></path>
          <path d="M1450.82 559.44L1595.78 639.64" stroke="hsla(27, 81.8%, 50.5%, 0.49)" stroke-width="1.5"></path>
          <path d="M1420.99 684.2L1420.99 684.2" stroke="hsla(27, 81.8%, 50.5%, 0.49)" stroke-width="1.5"></path>
          <path d="M1420.99 684.2L1595.78 639.64" stroke="hsla(27, 81.8%, 50.5%, 0.49)" stroke-width="1.5"></path>
          <path d="M1576.7 38.13L1576.7 38.13" stroke="hsla(27, 81.8%, 50.5%, 0.49)" stroke-width="1.5"></path>
          <path d="M1576.7 38.13L1401.3 -43.74" stroke="hsla(27, 81.8%, 50.5%, 0.49)" stroke-width="1.5"></path>
          <path d="M1576.7 38.13L1604.11 250.72" stroke="hsla(27, 81.8%, 50.5%, 0.49)" stroke-width="1.5"></path>
          <path d="M1576.7 38.13L1394.13 225.14" stroke="hsla(27, 81.8%, 50.5%, 0.49)" stroke-width="1.5"></path>
          <path d="M1604.11 250.72L1604.11 250.72" stroke="hsla(27, 81.8%, 50.5%, 0.49)" stroke-width="1.5"></path>
          <path d="M1604.11 250.72L1557.34 395.43" stroke="hsla(27, 81.8%, 50.5%, 0.49)" stroke-width="1.5"></path>
          <path d="M1604.11 250.72L1394.13 225.14" stroke="hsla(27, 81.8%, 50.5%, 0.49)" stroke-width="1.5"></path>
          <path d="M1604.11 250.72L1401.3 388.46" stroke="hsla(27, 81.8%, 50.5%, 0.49)" stroke-width="1.5"></path>
          <path d="M1557.34 395.43L1557.34 395.43" stroke="hsla(27, 81.8%, 50.5%, 0.49)" stroke-width="1.5"></path>
          <path d="M1557.34 395.43L1577.4 496.85" stroke="hsla(27, 81.8%, 50.5%, 0.49)" stroke-width="1.5"></path>
          <path d="M1557.34 395.43L1450.82 559.44" stroke="hsla(27, 81.8%, 50.5%, 0.49)" stroke-width="1.5"></path>
          <path d="M1577.4 496.85L1577.4 496.85" stroke="hsla(27, 81.8%, 50.5%, 0.49)" stroke-width="1.5"></path>
          <path d="M1577.4 496.85L1595.78 639.64" stroke="hsla(27, 81.8%, 50.5%, 0.49)" stroke-width="1.5"></path>
          <path d="M1577.4 496.85L1401.3 388.46" stroke="hsla(27, 81.8%, 50.5%, 0.49)" stroke-width="1.5"></path>
          <path d="M1577.4 496.85L1420.99 684.2" stroke="hsla(27, 81.8%, 50.5%, 0.49)" stroke-width="1.5"></path>
          <path d="M1577.4 496.85L1604.11 250.72" stroke="hsla(27, 81.8%, 50.5%, 0.49)" stroke-width="1.5"></path>
          <path d="M1595.78 639.64L1595.78 639.64" stroke="hsla(27, 81.8%, 50.5%, 0.49)" stroke-width="1.5"></path>
          <path d="M1595.78 639.64L1557.34 395.43" stroke="hsla(27, 81.8%, 50.5%, 0.49)" stroke-width="1.5"></path>
          <circle r="25" cx="-77.84" cy="651.9" fill="url(#SvgjsRadialGradient2661)"></circle>
          <circle r="25" cx="381.97" cy="698.3" fill="url(#SvgjsRadialGradient2661)"></circle>
          <circle r="25" cx="504.4" cy="700.07" fill="url(#SvgjsRadialGradient2661)"></circle>
          <circle r="25" cx="1151.95" cy="-99.39" fill="url(#SvgjsRadialGradient2661)"></circle>
          <circle r="25" cx="1150.02" cy="256.14" fill="url(#SvgjsRadialGradient2661)"></circle>
          <circle r="25" cx="1242.81" cy="62.49" fill="url(#SvgjsRadialGradient2661)"></circle>
          <circle r="25" cx="1442.14" cy="58" fill="url(#SvgjsRadialGradient2661)"></circle>
          <circle r="5" cx="-44.07" cy="491.8" fill="rgba(237, 215, 197, 0.745)"></circle>
          <circle r="5" cx="72.73" cy="543.38" fill="rgba(237, 215, 197, 0.745)"></circle>
          <circle r="5" cx="105.15" cy="645.03" fill="rgba(237, 215, 197, 0.745)"></circle>
          <circle r="5" cx="251.61" cy="509.49" fill="rgba(237, 215, 197, 0.745)"></circle>
          <circle r="5" cx="212.81" cy="670.96" fill="rgba(237, 215, 197, 0.745)"></circle>
          <circle r="5" cx="364.32" cy="503.9" fill="rgba(237, 215, 197, 0.745)"></circle>
          <circle r="5" cx="505.04" cy="536.42" fill="rgba(237, 215, 197, 0.745)"></circle>
          <circle r="5" cx="686.85" cy="370.65" fill="rgba(237, 215, 197, 0.745)"></circle>
          <circle r="5" cx="690.35" cy="544.04" fill="rgba(237, 215, 197, 0.745)"></circle>
          <circle r="5" cx="687.59" cy="712.27" fill="rgba(237, 215, 197, 0.745)"></circle>
          <circle r="5" cx="825.55" cy="403.97" fill="rgba(237, 215, 197, 0.745)"></circle>
          <circle r="5" cx="838.27" cy="491.75" fill="rgba(237, 215, 197, 0.745)"></circle>
          <circle r="5" cx="815.94" cy="662.87" fill="rgba(237, 215, 197, 0.745)"></circle>
          <circle r="5" cx="959.54" cy="391.69" fill="rgba(237, 215, 197, 0.745)"></circle>
          <circle r="5" cx="950.89" cy="538.57" fill="rgba(237, 215, 197, 0.745)"></circle>
          <circle r="5" cx="1154.45" cy="392.24" fill="rgba(237, 215, 197, 0.745)"></circle>
          <circle r="5" cx="1133.46" cy="502.13" fill="rgba(237, 215, 197, 0.745)"></circle>
          <circle r="5" cx="1132.22" cy="652.8" fill="rgba(237, 215, 197, 0.745)"></circle>
          <circle r="5" cx="1283.82" cy="-83.36" fill="rgba(237, 215, 197, 0.745)"></circle>
          <circle r="5" cx="1287.36" cy="212.73" fill="rgba(237, 215, 197, 0.745)"></circle>
          <circle r="5" cx="1252.23" cy="353.03" fill="rgba(237, 215, 197, 0.745)"></circle>
          <circle r="5" cx="1262.65" cy="537.63" fill="rgba(237, 215, 197, 0.745)"></circle>
          <circle r="5" cx="1401.3" cy="-43.74" fill="rgba(237, 215, 197, 0.745)"></circle>
          <circle r="5" cx="1394.13" cy="225.14" fill="rgba(237, 215, 197, 0.745)"></circle>
          <circle r="5" cx="1401.3" cy="388.46" fill="rgba(237, 215, 197, 0.745)"></circle>
          <circle r="5" cx="1450.82" cy="559.44" fill="rgba(237, 215, 197, 0.745)"></circle>
          <circle r="5" cx="1420.99" cy="684.2" fill="rgba(237, 215, 197, 0.745)"></circle>
          <circle r="5" cx="1576.7" cy="38.13" fill="rgba(237, 215, 197, 0.745)"></circle>
          <circle r="5" cx="1604.11" cy="250.72" fill="rgba(237, 215, 197, 0.745)"></circle>
          <circle r="5" cx="1557.34" cy="395.43" fill="rgba(237, 215, 197, 0.745)"></circle>
          <circle r="5" cx="1577.4" cy="496.85" fill="rgba(237, 215, 197, 0.745)"></circle>
          <circle r="5" cx="1595.78" cy="639.64" fill="rgba(237, 215, 197, 0.745)"></circle>
     </g>
     <defs>
          <mask id="SvgjsMask2659">
               <rect width="1436" height="561" fill="#ffffff"></rect>
          </mask>
          <linearGradient x1="84.77%" y1="-38.99%" x2="15.23%" y2="138.99%" gradientUnits="userSpaceOnUse"
               id="SvgjsLinearGradient2660">
               <stop stop-color="rgba(14, 42, 71, 1)" offset="0.18"></stop>
               <stop stop-color="rgba(0, 0, 0, 1)" offset="0.75"></stop>
          </linearGradient>
          <radialGradient id="SvgjsRadialGradient2661">
               <stop stop-color="#ffffff" offset="0.1"></stop>
               <stop stop-color="rgba(180, 91, 18, 0.49)" offset="0.2"></stop>
               <stop stop-color="rgba(180, 91, 18, 0)" offset="1"></stop>
          </radialGradient>
     </defs>
</svg>